<svg width="1500" height="387" viewBox="0 0 1500 387" fill="none" xmlns="http://www.w3.org/2000/svg">
<path d="M1541.72 123.125C1541.72 70.0126 1498.75 26.7749 1445.63 26.2411C1439.23 11.2948 1424.28 0.885742 1407.2 0.885742C1383.98 0.885742 1365.29 19.5687 1365.29 42.7889C1365.29 49.4614 1366.89 55.8669 1369.83 61.4718C1356.22 78.2864 1347.94 99.6384 1347.94 122.859C1347.94 126.862 1348.21 130.599 1348.74 134.602C1312.18 137.538 1281.48 160.758 1267.6 193.053C1262.53 190.918 1256.92 189.85 1251.05 189.85C1227.83 189.85 1209.14 208.533 1209.14 231.753C1209.14 236.558 1209.95 240.828 1211.28 245.098C1178.18 246.967 1150.96 270.454 1143.22 301.414C1140.55 300.88 1137.88 300.613 1134.94 300.613C1122.93 300.613 1111.99 306.218 1104.78 314.759C1084.49 293.674 1055.67 280.329 1024.17 280.329C1022.84 280.329 1021.5 280.329 1020.17 280.329C1013.76 265.383 998.813 254.974 981.73 254.974C966.783 254.974 953.704 262.714 946.23 274.457C940.892 271.788 934.752 270.187 928.346 270.187C917.937 270.187 908.594 274.19 901.655 280.863C893.113 236.024 853.609 202.128 806.365 202.128C778.872 202.128 753.782 213.604 736.165 232.287C714.812 232.554 695.327 241.896 681.981 256.575C676.642 255.507 671.037 255.24 665.432 255.24C638.206 255.24 613.649 266.45 596.033 284.599C588.826 275.792 578.149 270.454 565.871 270.454C548.521 270.454 534.108 281.663 528.769 297.144C520.228 291.806 510.886 287.802 501.01 284.866C501.277 282.731 501.544 280.329 501.544 278.194C501.544 254.974 482.859 236.291 459.638 236.291C440.686 236.291 424.404 249.102 419.333 266.45C415.863 265.916 412.126 265.65 408.656 265.65C393.976 265.65 380.363 269.386 368.351 275.525C366.216 229.351 328.314 192.786 281.603 192.786C263.186 192.786 246.103 198.658 231.956 208.266C222.08 168.498 187.915 138.339 145.741 134.869C146.275 131.132 146.542 127.129 146.542 123.125C146.542 69.4788 103.035 26.2411 49.6508 26.2411C-4.53362 26.2411 -47.7744 69.7457 -47.7744 123.125C-47.7744 173.836 -8.53741 215.739 41.1094 219.743C40.5756 223.479 40.3087 227.483 40.3087 231.486C40.3087 266.45 58.993 297.41 86.7525 314.225C73.4066 332.641 65.399 355.328 65.399 379.882C65.399 441.803 115.58 491.98 177.505 491.98C194.054 491.98 210.069 488.243 224.215 481.838C228.753 481.571 233.558 481.304 237.828 480.503C253.043 514.132 286.941 537.353 326.178 537.353C362.479 537.353 394.243 517.335 410.791 487.709C427.874 498.385 448.16 504.524 469.78 504.524C515.423 504.524 554.661 477.033 572.277 437.799C616.853 457.016 680.913 469.027 752.18 469.027C818.91 469.027 879.233 458.351 923.275 441.269C941.425 478.635 979.862 504.257 1024.17 504.257C1045.79 504.257 1066.08 498.119 1083.16 487.443C1099.71 517.068 1131.47 537.086 1167.77 537.086C1207.01 537.086 1240.64 513.866 1256.12 480.236C1260.66 481.037 1265.2 481.304 1269.74 481.571C1283.88 487.976 1299.63 491.713 1316.45 491.713C1378.37 491.713 1428.55 441.536 1428.55 379.615C1428.55 355.061 1420.54 332.374 1407.2 313.958C1435.22 296.877 1453.64 266.183 1453.64 231.22C1453.64 227.216 1453.38 223.479 1452.84 219.476C1502.49 215.739 1541.72 174.103 1541.72 123.125Z" fill="url(#paint0_linear)"/>
<defs>
<linearGradient id="paint0_linear" x1="753.557" y1="-229.533" x2="741.102" y2="430.594" gradientUnits="userSpaceOnUse">
<stop stop-color="#FFF4FF"/>
<stop offset="0.222" stop-color="#FBF3FE"/>
<stop offset="0.4279" stop-color="#F0EFFB"/>
<stop offset="0.6275" stop-color="#DDE9F5"/>
<stop offset="0.8219" stop-color="#C3E0ED"/>
<stop offset="1" stop-color="#A4D6E4"/>
</linearGradient>
</defs>
</svg>
