<svg width="1500" height="263" viewBox="0 0 1500 263" fill="none" xmlns="http://www.w3.org/2000/svg">
<path d="M1560.41 128.498C1560.41 72.808 1515.03 27.4113 1458.71 26.8834C1451.77 11.3113 1436.29 0.48999 1417.87 0.48999C1393.32 0.48999 1373.3 20.2851 1373.3 44.567C1373.3 51.6933 1374.9 58.2916 1378.1 64.3621C1363.69 81.7818 1354.88 104.216 1354.88 128.762C1354.88 132.985 1355.15 136.944 1355.68 140.903C1316.98 144.07 1284.42 168.352 1269.74 202.136C1264.4 199.76 1258.52 198.705 1252.39 198.705C1227.83 198.705 1207.81 218.5 1207.81 242.782C1207.81 247.797 1208.61 252.283 1210.21 256.77C1175.25 258.882 1146.42 283.164 1138.14 315.892C1135.21 315.364 1132.54 314.836 1129.34 314.836C1116.52 314.836 1105.05 320.642 1097.31 329.616C1075.69 307.446 1045.26 293.721 1011.89 293.721C1010.56 293.721 1008.96 293.721 1007.62 293.721C1000.68 278.149 984.933 267.328 966.783 267.328C951.034 267.328 937.155 275.51 929.147 287.651C923.542 284.747 917.136 283.164 910.463 283.164C899.519 283.164 889.376 287.387 882.169 294.249C873.094 247.269 831.455 211.901 781.274 211.901C751.913 211.901 725.755 224.042 707.071 243.31C684.383 243.574 663.83 253.339 649.684 268.647C643.811 267.592 637.939 267.064 632.067 267.064C603.24 267.064 577.082 278.941 558.397 297.944C550.924 288.706 539.179 282.9 526.367 282.9C508.217 282.9 492.735 294.513 487.13 310.877C478.055 305.334 468.179 300.847 457.502 297.944C457.769 295.569 458.036 293.193 458.036 290.818C458.036 266.536 438.017 246.741 413.461 246.741C393.175 246.741 376.092 259.938 370.754 278.149C367.017 277.621 363.28 277.357 359.276 277.357C343.795 277.357 329.381 281.052 316.569 287.651C314.167 239.351 274.129 201.08 224.749 201.08C205.264 201.08 187.114 207.151 172.166 217.444C161.757 175.742 125.456 144.07 80.8802 140.375C81.4141 136.416 81.681 132.193 81.681 128.234C81.681 72.0162 35.771 26.6195 -21.0826 26.6195C-77.9362 26.6195 -123.846 72.0162 -123.846 128.234C-123.846 181.549 -82.4738 225.098 -29.624 229.585C-30.1578 233.544 -30.4247 237.767 -30.4247 241.726C-30.4247 278.413 -10.6728 310.613 18.9552 328.56C4.8085 347.828 -3.73289 371.846 -3.73289 397.447C-3.73289 462.375 49.3839 514.898 115.046 514.898C132.662 514.898 149.478 510.939 164.426 504.341C169.23 504.077 174.302 503.813 178.839 503.021C195.121 538.124 230.888 562.406 272.261 562.406C310.697 562.406 344.329 541.556 361.945 510.411C380.096 521.497 401.449 528.095 424.404 528.095C472.716 528.095 514.356 499.326 533.04 458.416C580.285 478.475 648.082 491.144 723.62 491.144C794.353 491.144 858.147 480.059 904.858 462.111C924.076 501.174 964.647 528.095 1011.62 528.095C1034.58 528.095 1055.93 521.761 1074.08 510.411C1091.7 541.292 1125.33 562.406 1163.77 562.406C1205.41 562.406 1241.17 538.124 1257.19 503.021C1261.99 503.813 1266.8 504.077 1271.6 504.341C1286.55 511.203 1303.37 514.898 1320.98 514.898C1386.65 514.898 1439.76 462.375 1439.76 397.447C1439.76 371.582 1431.49 347.828 1417.07 328.56C1446.7 310.613 1466.45 278.413 1466.45 241.726C1466.45 237.503 1466.19 233.544 1465.65 229.585C1519.04 225.626 1560.41 181.813 1560.41 128.498Z" fill="url(#paint0_linear)"/>
<defs>
<linearGradient id="paint0_linear" x1="718.429" y1="302.435" x2="718.429" y2="562.811" gradientUnits="userSpaceOnUse">
<stop stop-color="#FFF4FF"/>
<stop offset="1" stop-color="#DBD6E4"/>
</linearGradient>
</defs>
</svg>
