<svg width="1500" height="353" viewBox="0 0 1500 353" fill="none" xmlns="http://www.w3.org/2000/svg">
<path d="M-76.334 123.021C-76.334 69.9086 -33.3601 26.6709 19.7567 26.1371C26.1627 11.1908 41.1101 0.781738 58.1929 0.781738C81.4148 0.781738 100.099 19.4647 100.099 42.6849C100.099 49.3573 98.4976 55.7629 95.5615 61.3678C109.174 78.1824 117.449 99.5343 117.449 122.755C117.449 126.758 117.182 130.495 116.648 134.498C153.216 137.434 183.911 160.654 197.791 192.949C202.863 190.814 208.468 189.746 214.34 189.746C237.562 189.746 256.246 208.429 256.246 231.649C256.246 236.454 255.446 240.724 254.111 244.994C287.209 246.863 314.435 270.35 322.175 301.31C324.844 300.776 327.514 300.509 330.45 300.509C342.461 300.509 353.405 306.114 360.612 314.655C380.897 293.57 409.724 280.225 441.221 280.225C442.555 280.225 443.89 280.225 445.225 280.225C451.631 265.279 466.578 254.87 483.661 254.87C498.608 254.87 511.687 262.61 519.161 274.353C524.499 271.684 530.639 270.083 537.045 270.083C547.454 270.083 556.797 274.086 563.736 280.759C572.278 235.92 611.782 202.024 659.026 202.024C686.519 202.024 711.609 213.5 729.226 232.183C750.579 232.45 770.064 241.791 783.41 256.471C788.749 255.403 794.354 255.136 799.959 255.136C827.185 255.136 851.741 266.346 869.358 284.495C876.565 275.688 887.242 270.35 899.52 270.35C916.87 270.35 931.283 281.559 936.622 297.04C945.163 291.702 954.505 287.698 964.381 284.762C964.114 282.627 963.847 280.225 963.847 278.09C963.847 254.87 982.531 236.187 1005.75 236.187C1024.7 236.187 1040.99 248.998 1046.06 266.346C1049.53 265.812 1053.26 265.546 1056.73 265.546C1071.42 265.546 1085.03 269.282 1097.04 275.421C1099.17 229.247 1137.08 192.682 1183.79 192.682C1202.21 192.682 1219.29 198.554 1233.43 208.162C1243.31 168.394 1277.48 138.235 1319.65 134.765C1319.12 131.028 1318.85 127.025 1318.85 123.021C1318.85 69.3748 1362.36 26.1371 1415.74 26.1371C1469.39 26.1371 1512.63 69.6417 1512.63 123.021C1512.63 173.732 1473.39 215.635 1423.75 219.639C1424.28 223.375 1424.55 227.379 1424.55 231.382C1424.55 266.346 1405.86 297.306 1378.1 314.121C1391.45 332.537 1399.46 355.224 1399.46 379.778C1399.46 441.699 1349.28 491.876 1287.35 491.876C1270.8 491.876 1254.79 488.139 1240.64 481.734C1236.1 481.467 1231.3 481.2 1227.03 480.399C1211.81 514.029 1177.92 537.249 1138.68 537.249C1102.38 537.249 1070.61 517.231 1054.07 487.605C1036.98 498.281 1016.7 504.42 995.077 504.42C949.434 504.42 910.197 476.93 892.58 437.695C848.005 456.912 783.944 468.923 712.677 468.923C645.947 468.923 585.624 458.247 541.582 441.165C523.432 478.531 484.995 504.153 440.687 504.153C419.067 504.153 398.781 498.015 381.698 487.339C365.149 516.964 333.386 536.982 297.085 536.982C257.848 536.982 224.216 513.762 208.735 480.132C204.197 480.933 199.66 481.2 195.122 481.467C180.975 487.872 165.227 491.609 148.411 491.609C86.4863 491.609 36.3056 441.432 36.3056 379.511C36.3056 354.957 44.3132 332.27 57.6591 313.854C29.6327 296.773 11.2153 266.079 11.2153 231.116C11.2153 227.112 11.4822 223.375 12.016 219.372C-37.3639 215.635 -76.334 173.732 -76.334 123.021Z" fill="url(#paint0_linear)"/>
<defs>
<linearGradient id="paint0_linear" x1="716.795" y1="-116.431" x2="721.833" y2="621.629" gradientUnits="userSpaceOnUse">
<stop stop-color="#FFF4FF"/>
<stop offset="0.222" stop-color="#FBF3FE"/>
<stop offset="0.4279" stop-color="#F0EFFB"/>
<stop offset="0.6275" stop-color="#DDE9F5"/>
<stop offset="0.8219" stop-color="#C3E0ED"/>
<stop offset="1" stop-color="#A4D6E4"/>
</linearGradient>
</defs>
</svg>
